<?xml version="1.0" encoding="UTF-8" standalone="no"?>
<!-- Created with Inkscape (http://www.inkscape.org/) -->

<svg
   width="180"
   height="180"
   viewBox="0 0 180 180"
   version="1.1"
   id="svg5"
   inkscape:version="1.2.1 (9c6d41e, 2022-07-14)"
   sodipodi:docname="bytescript.ink.svg"
   xmlns:inkscape="http://www.inkscape.org/namespaces/inkscape"
   xmlns:sodipodi="http://sodipodi.sourceforge.net/DTD/sodipodi-0.dtd"
   xmlns="http://www.w3.org/2000/svg"
   xmlns:svg="http://www.w3.org/2000/svg">
  <sodipodi:namedview
     id="namedview7"
     pagecolor="#ffffff"
     bordercolor="#000000"
     borderopacity="0.25"
     inkscape:showpageshadow="2"
     inkscape:pageopacity="0.0"
     inkscape:pagecheckerboard="0"
     inkscape:deskcolor="#d1d1d1"
     inkscape:document-units="px"
     showgrid="false"
     inkscape:zoom="1.7695045"
     inkscape:cx="87.877708"
     inkscape:cy="70.641244"
     inkscape:window-width="1212"
     inkscape:window-height="710"
     inkscape:window-x="13"
     inkscape:window-y="47"
     inkscape:window-maximized="0"
     inkscape:current-layer="layer1" />
  <defs
     id="defs2">
    <rect
       x="42.506374"
       y="59.340581"
       width="71.545381"
       height="50.502623"
       id="rect223" />
    <rect
       x="42.506374"
       y="59.34058"
       width="71.54538"
       height="50.502625"
       id="rect223-5" />
  </defs>
  <g
     inkscape:label="Layer 1"
     inkscape:groupmode="layer"
     id="layer1">
    <rect
       style="display:none;fill:#8c53dd;fill-opacity:1;stroke-width:1.16633"
       id="rect111"
       width="180"
       height="180"
       x="-1.0658141e-14"
       y="-3.5527137e-15"
       ry="0"
       inkscape:label="bg square"
       sodipodi:insensitive="true" />
    <path
       id="rect111-1"
       style="fill:#8c53dd;fill-opacity:1;stroke-width:1.16633"
       inkscape:label="bg square bitten 1"
       d="M 0 0 L 0 180 L 180 180 L 180 0 L 156.35156 0 A 47.496174 49.344869 0 0 1 156.29492 1.2167969 A 16.679625 15.864731 0 0 1 157.10938 6.0117188 L 155.61523 6.0175781 A 47.496174 49.344869 0 0 1 155.60352 6.0878906 L 157.10938 6.0878906 A 16.679625 15.864731 0 0 1 151.86719 17.611328 A 47.496174 49.344869 0 0 1 151.13867 19.214844 A 19.224762 16.470716 0 0 1 151.2168 20.535156 L 150.43359 20.539062 A 47.496174 49.344869 0 0 1 150.39062 20.613281 L 151.2168 20.613281 A 19.224762 16.470716 0 0 1 136.70117 36.566406 A 21.163915 18.77346 0 0 1 116.61133 49.546875 A 21.163915 18.77346 0 0 1 106.63477 47.341797 A 21.163915 18.77346 0 0 1 97.742188 49.113281 A 21.163915 18.77346 0 0 1 76.712891 32.544922 A 47.496174 49.344869 0 0 1 74.904297 30.724609 A 21.163915 18.77346 0 0 1 64.017578 14.375 A 21.163915 18.77346 0 0 1 64.056641 13.625 A 21.163915 18.77346 0 0 1 60.507812 3.2675781 A 21.163915 18.77346 0 0 1 60.859375 0 L 0 0 z M 142.31641 83.798828 C 147.02414 83.798828 151.56599 84.748824 155.94336 86.648438 C 160.32072 88.465458 164.08026 90.943541 167.21875 94.082031 L 159.9082 103.25 C 157.34786 101.10261 154.62314 99.4088 151.73242 98.169922 C 148.9243 96.931044 145.78526 96.3125 142.31641 96.3125 C 138.51718 96.3125 135.42056 97.179634 133.02539 98.914062 C 130.71282 100.5659 129.55664 102.87826 129.55664 105.85156 C 129.55664 107.91636 130.13473 109.65062 131.29102 111.05469 C 132.52988 112.37616 134.1389 113.53233 136.12109 114.52344 C 138.1033 115.43195 140.20948 116.33954 142.43945 117.24805 L 153.4668 121.83203 C 158.25712 123.89683 162.18043 126.6235 165.23633 130.00977 C 168.29223 133.31343 169.82031 137.89769 169.82031 143.76172 C 169.82031 148.13908 168.66218 152.14331 166.34961 155.77734 C 164.03704 159.41139 160.69377 162.34424 156.31641 164.57422 C 152.02163 166.72161 146.81687 167.79492 140.70508 167.79492 C 135.25401 167.79492 129.96835 166.76205 124.84766 164.69727 C 119.80955 162.63247 115.35057 159.70157 111.46875 155.90234 L 119.89258 146.11523 C 122.7833 148.84077 126.08611 151.07026 129.80273 152.80469 C 133.51937 154.45653 137.2365 155.2832 140.95312 155.2832 C 145.57827 155.2832 149.08921 154.33321 151.48438 152.43359 C 153.87953 150.53399 155.07617 148.01349 155.07617 144.875 C 155.07617 141.48873 153.87953 139.05305 151.48438 137.56641 C 149.1718 136.07975 146.1985 134.55167 142.56445 132.98242 L 131.41406 128.15039 C 128.77113 126.9941 126.16971 125.50842 123.60938 123.69141 C 121.13162 121.87438 119.0659 119.56202 117.41406 116.75391 C 115.84482 113.94578 115.06055 110.55816 115.06055 106.59375 C 115.06055 102.29897 116.21672 98.458531 118.5293 95.072266 C 120.92445 91.603408 124.14636 88.878689 128.19336 86.896484 C 132.32296 84.831688 137.03052 83.798828 142.31641 83.798828 z M 45.064453 85.285156 L 70.957031 85.285156 C 76.573277 85.285156 81.529443 85.905653 85.824219 87.144531 C 90.201586 88.383409 93.627713 90.489584 96.105469 93.462891 C 98.665815 96.353605 99.947266 100.27692 99.947266 105.23242 C 99.947266 109.03165 98.95486 112.6235 96.972656 116.00977 C 94.990452 119.31343 92.225278 121.58534 88.673828 122.82422 L 88.673828 123.32031 C 93.133788 124.31142 96.808504 126.4176 99.699219 129.63867 C 102.67253 132.77717 104.1582 137.07043 104.1582 142.52148 C 104.1582 147.88996 102.79585 152.3509 100.07031 155.90234 C 97.427376 159.4538 93.752657 162.09565 89.044922 163.83008 C 84.337187 165.48192 79.009113 166.30859 73.0625 166.30859 L 45.064453 166.30859 L 45.064453 85.285156 z M 59.435547 96.435547 L 59.435547 118.73633 L 69.71875 118.73633 C 75.334995 118.73633 79.422074 117.70347 81.982422 115.63867 C 84.542769 113.57387 85.824219 110.80675 85.824219 107.33789 C 85.824219 103.37348 84.502314 100.5659 81.859375 98.914062 C 79.216436 97.262226 75.252675 96.435547 69.966797 96.435547 L 59.435547 96.435547 z M 59.435547 129.51367 L 59.435547 155.1582 L 71.576172 155.1582 C 77.522785 155.1582 82.107043 154.08489 85.328125 151.9375 C 88.549207 149.70752 90.160156 146.32184 90.160156 141.7793 C 90.160156 137.48452 88.589662 134.38594 85.451172 132.48633 C 82.312682 130.50412 77.687968 129.51367 71.576172 129.51367 L 59.435547 129.51367 z " />
  </g>
  <g
     id="layer3"
     inkscape:label="bite shapes"
     style="display:none"
     transform="matrix(2.1996752,0,0,2.1996752,-88.947427,-3.549942)"
     inkscape:groupmode="layer"
     sodipodi:insensitive="true">
    <path
       style="fill:#ffffff;fill-opacity:1;stroke-width:0.805706"
       id="path2331"
       sodipodi:type="arc"
       sodipodi:cx="90"
       sodipodi:cy="-3.5527137e-15"
       sodipodi:rx="21.592358"
       sodipodi:ry="22.432798"
       sodipodi:start="0"
       sodipodi:end="6.2783916"
       sodipodi:arc-type="slice"
       d="M 111.59236,0 A 21.592358,22.432798 0 0 1 90.025877,22.432782 21.592358,22.432798 0 0 1 68.407704,0.05376808 21.592358,22.432798 0 0 1 89.92237,-22.432653 21.592358,22.432798 0 0 1 111.59211,-0.10753585 L 90,0 Z" />
    <path
       style="fill:#ffffff;fill-opacity:1;stroke-width:0.331739"
       id="path2331-8"
       sodipodi:type="arc"
       sodipodi:cx="84.859558"
       sodipodi:cy="15.406915"
       sodipodi:rx="9.6213818"
       sodipodi:ry="8.5346508"
       sodipodi:start="0"
       sodipodi:end="6.2783916"
       sodipodi:arc-type="slice"
       d="m 94.48094,15.406915 a 9.6213818,8.5346508 0 0 1 -9.609851,8.534644 9.6213818,8.5346508 0 0 1 -9.632885,-8.514188 9.6213818,8.5346508 0 0 1 9.586763,-8.5550519 9.6213818,8.5346508 0 0 1 9.655862,8.4936829 l -9.621271,0.04091 z" />
    <path
       style="fill:#ffffff;fill-opacity:1;stroke-width:0.331739"
       id="path2331-8-7"
       sodipodi:type="arc"
       sodipodi:cx="93.438477"
       sodipodi:cy="15.603457"
       sodipodi:rx="9.6213818"
       sodipodi:ry="8.5346508"
       sodipodi:start="0"
       sodipodi:end="6.2783916"
       sodipodi:arc-type="slice"
       d="m 103.05986,15.603457 a 9.6213818,8.5346508 0 0 1 -9.609853,8.534645 9.6213818,8.5346508 0 0 1 -9.632885,-8.514188 9.6213818,8.5346508 0 0 1 9.586763,-8.5550522 9.6213818,8.5346508 0 0 1 9.655865,8.4936832 l -9.621273,0.04091 z" />
    <path
       style="fill:#ffffff;fill-opacity:1;stroke-width:0.296151"
       id="path2331-8-7-1"
       sodipodi:type="arc"
       sodipodi:cx="100.44215"
       sodipodi:cy="10.985184"
       sodipodi:rx="8.7398186"
       sodipodi:ry="7.4877944"
       sodipodi:start="0"
       sodipodi:end="6.2783916"
       sodipodi:arc-type="slice"
       d="m 109.18196,10.985184 a 8.7398186,7.4877944 0 0 1 -8.72934,7.487789 8.7398186,7.4877944 0 0 1 -8.750267,-7.469842 8.7398186,7.4877944 0 0 1 8.708367,-7.5056933 8.7398186,7.4877944 0 0 1 8.77114,7.4518523 l -8.73971,0.03589 z" />
    <path
       style="fill:#ffffff;fill-opacity:1;stroke-width:0.245533"
       id="path2331-8-7-8"
       sodipodi:type="arc"
       sodipodi:cx="102.39641"
       sodipodi:cy="-0.17808548"
       sodipodi:rx="6.866497"
       sodipodi:ry="6.5511336"
       sodipodi:start="0"
       sodipodi:end="6.2783916"
       sodipodi:arc-type="slice"
       d="m 109.26291,-0.17808548 a 6.866497,6.5511336 0 0 1 -6.85827,6.55112898 6.866497,6.5511336 0 0 1 -6.874709,-6.53542688 6.866497,6.5511336 0 0 1 6.841789,-6.56679342 6.866497,6.5511336 0 0 1 6.89111,6.51968723 l -6.86642,0.0314041 z" />
    <path
       style="fill:#ffffff;fill-opacity:1;stroke-width:0.27073"
       id="path2331-8-7-7"
       sodipodi:type="arc"
       sodipodi:cx="104.27773"
       sodipodi:cy="4.3811522"
       sodipodi:rx="7.582767"
       sodipodi:ry="7.212306"
       sodipodi:start="0"
       sodipodi:end="6.2783916"
       sodipodi:arc-type="slice"
       d="m 111.8605,4.3811522 a 7.582767,7.212306 0 0 1 -7.57368,7.2123008 7.582767,7.212306 0 0 1 -7.591832,-7.195014 7.582767,7.212306 0 0 1 7.555482,-7.2295463 7.582767,7.212306 0 0 1 7.60994,7.1776859 l -7.58268,0.034574 z" />
    <path
       style="fill:#ffffff;fill-opacity:1;stroke-width:0.331739"
       id="path2331-8-7-87"
       sodipodi:type="arc"
       sodipodi:cx="79.161339"
       sodipodi:cy="8.1282635"
       sodipodi:rx="9.6213818"
       sodipodi:ry="8.5346508"
       sodipodi:start="0"
       sodipodi:end="6.2783916"
       sodipodi:arc-type="slice"
       d="M 88.782721,8.1282635 A 9.6213818,8.5346508 0 0 1 79.172869,16.662908 9.6213818,8.5346508 0 0 1 69.539985,8.1487198 9.6213818,8.5346508 0 0 1 79.126747,-0.40633217 9.6213818,8.5346508 0 0 1 88.78261,8.087351 l -9.621271,0.040912 z" />
    <path
       style="fill:#ffffff;fill-opacity:1;stroke-width:0.331739"
       id="path2331-8-7-74"
       sodipodi:type="arc"
       sodipodi:cx="77.565567"
       sodipodi:cy="3.078958"
       sodipodi:rx="9.6213818"
       sodipodi:ry="8.5346508"
       sodipodi:start="0"
       sodipodi:end="6.2783916"
       sodipodi:arc-type="slice"
       d="m 87.186949,3.078958 a 9.6213818,8.5346508 0 0 1 -9.609851,8.534645 9.6213818,8.5346508 0 0 1 -9.632885,-8.5141887 9.6213818,8.5346508 0 0 1 9.586763,-8.5550519 9.6213818,8.5346508 0 0 1 9.655862,8.4936832 l -9.621271,0.040912 z" />
  </g>
  <g
     inkscape:groupmode="layer"
     id="layer4"
     inkscape:label="bite crumbs"
     transform="matrix(2.1996752,0,0,2.1996752,-88.947427,-3.549942)"
     sodipodi:insensitive="true"
     style="display:inline">
    <path
       style="fill:#8c53dd;fill-opacity:1"
       id="path3275"
       sodipodi:type="arc"
       sodipodi:cx="80.027596"
       sodipodi:cy="12.951649"
       sodipodi:rx="1.3978724"
       sodipodi:ry="1.3978724"
       sodipodi:start="0"
       sodipodi:end="6.2783916"
       sodipodi:arc-type="slice"
       d="m 81.425468,12.951649 a 1.3978724,1.3978724 0 0 1 -1.396197,1.397871 1.3978724,1.3978724 0 0 1 -1.399544,-1.394521 1.3978724,1.3978724 0 0 1 1.392843,-1.401214 1.3978724,1.3978724 0 0 1 1.402882,1.391163 l -1.397856,0.0067 z" />
    <path
       style="fill:#8c53dd;fill-opacity:1"
       id="path3275-2"
       sodipodi:type="arc"
       sodipodi:cx="112.16402"
       sodipodi:cy="-5.608201"
       sodipodi:rx="1.3978724"
       sodipodi:ry="1.3978724"
       sodipodi:start="0"
       sodipodi:end="6.2783916"
       sodipodi:arc-type="slice"
       d="m 113.56189,-5.608201 a 1.3978724,1.3978724 0 0 1 -1.3962,1.3978714 1.3978724,1.3978724 0 0 1 -1.39954,-1.3945209 1.3978724,1.3978724 0 0 1 1.39284,-1.4012139 1.3978724,1.3978724 0 0 1 1.40288,1.3911624 l -1.39785,0.0067 z" />
    <path
       style="fill:#8c53dd;fill-opacity:1;stroke-width:1.36899"
       id="path3275-8"
       sodipodi:type="arc"
       sodipodi:cx="99.033852"
       sodipodi:cy="15.98984"
       sodipodi:rx="1.9136738"
       sodipodi:ry="1.9136738"
       sodipodi:start="0"
       sodipodi:end="6.2783916"
       sodipodi:arc-type="slice"
       d="m 100.94753,15.98984 a 1.9136738,1.9136738 0 0 1 -1.911385,1.913672 1.9136738,1.9136738 0 0 1 -1.915962,-1.909086 1.9136738,1.9136738 0 0 1 1.906788,-1.918248 1.9136738,1.9136738 0 0 1 1.920529,1.904488 l -1.913648,0.0092 z" />
    <path
       style="fill:#8c53dd;fill-opacity:1;stroke-width:0.569362"
       id="path3275-5"
       sodipodi:type="arc"
       sodipodi:cx="83.43277"
       sodipodi:cy="6.5156336"
       sodipodi:rx="0.79589623"
       sodipodi:ry="0.79589623"
       sodipodi:start="0"
       sodipodi:end="6.2783916"
       sodipodi:arc-type="slice"
       d="m 84.228666,6.5156336 a 0.79589623,0.79589623 0 0 1 -0.794942,0.7958956 0.79589623,0.79589623 0 0 1 -0.796848,-0.793988 0.79589623,0.79589623 0 0 1 0.793032,-0.7977987 0.79589623,0.79589623 0 0 1 0.798749,0.7920758 l -0.795887,0.00382 z" />
  </g>
  <g
     inkscape:groupmode="layer"
     id="layer5"
     inkscape:label="workmark">
    <text
       xml:space="preserve"
       id="text221-0"
       style="font-style:normal;font-variant:normal;font-weight:600;font-stretch:normal;font-size:12px;font-family:'Source Sans Pro';-inkscape-font-specification:'Source Sans Pro, Semi-Bold';font-variant-ligatures:normal;font-variant-caps:normal;font-variant-numeric:normal;font-variant-east-asian:normal;white-space:pre;shape-inside:url(#rect223-5);display:none;fill:#f2f2f2"
       transform="matrix(10.324001,0,0,10.324001,-404.04871,-554.71806)"
       inkscape:label="workmark"
       sodipodi:insensitive="true" />
  </g>
</svg>
